<svg width="12" height="8" viewBox="0 0 12 8" fill="none" xmlns="http://www.w3.org/2000/svg">
<path fill-rule="evenodd" clip-rule="evenodd" d="M11.5501 3.83883H11.5601H2.2101L3.8901 2.06183C4.06357 1.87833 4.06357 1.59132 3.8901 1.40783L3.6301 1.13183C3.54976 1.04616 3.43755 0.997559 3.3201 0.997559C3.20265 0.997559 3.09044 1.04616 3.0101 1.13183L0.1301 4.17083C-0.0433666 4.35432 -0.0433666 4.64133 0.1301 4.82483L3.0101 7.86383C3.09059 7.94922 3.20275 7.99763 3.3201 7.99763C3.43745 7.99763 3.54961 7.94922 3.6301 7.86383L3.8901 7.58783C3.97261 7.4992 4.01898 7.38291 4.0201 7.26183C4.01895 7.14253 3.97248 7.02813 3.8901 6.94183L2.1901 5.15583H11.5601C11.8105 5.14291 12.0053 4.93347 12.0001 4.68283V4.29983C12.0023 4.04859 11.8013 3.84267 11.5501 3.83883Z" fill="white"/>
</svg>
