<svg width="201" height="22" viewBox="0 0 201 22" fill="none" xmlns="http://www.w3.org/2000/svg">
<path d="M14.0825 15.175C14.0825 13 12.9575 11.5 10.4575 10.025C12.1325 8.95 13.0825 7.45 13.0825 5.825C13.0825 2.775 10.4325 0.524998 6.45752 0.524998H0.90752C1.53252 2.35 1.78252 3.925 1.78252 6.4V15.125C1.78252 17.6 1.53252 19.175 0.90752 21H6.50752C10.6325 21 14.0825 18.6 14.0825 15.175ZM5.45752 2.575C7.58252 2.575 9.35752 4.125 9.35752 6.05C9.35752 7.85 7.85752 9.475 5.45752 9.975V2.575ZM10.2825 15.125C10.2825 17.2 8.38252 18.925 5.45752 18.925V10.375C8.30752 10.875 10.2825 12.875 10.2825 15.125ZM42.9075 10.525C43.0075 4.475 37.9325 0.174998 31.9825 0.274999C26.0075 0.174998 20.9825 5.15 21.1075 10.85C21.0075 16.2 25.4825 21.375 31.8825 21.25C37.9825 21.35 43.0325 16.65 42.9075 10.525ZM25.1575 9.925C25.0825 5.825 28.0075 3.025 31.2825 3.075C35.4075 2.975 38.9825 7.05 38.8825 11.5C38.8825 15.325 36.3075 18.425 32.6325 18.425C28.2825 18.525 25.0825 14.325 25.1575 9.925ZM51.0601 13.075C51.0601 18.375 53.2601 21.175 57.2851 21.175C59.1351 21.175 61.1101 20.425 63.2101 18.95C63.2101 19.875 63.1601 20.55 63.0351 21H67.6101C66.9851 19.175 66.7351 17.6 66.7351 15.125V6.4C66.7351 3.925 66.9851 2.35 67.6101 0.524998H62.1851C62.8101 2.35 63.0601 3.925 63.0601 6.4V13.625C63.0601 16.25 60.9851 18.05 58.6351 18.05C56.2351 18.05 54.7351 16.4 54.7351 13.125V6.4C54.7351 3.925 54.9851 2.35 55.6101 0.524998H50.1851C50.8101 2.35 51.0601 3.925 51.0601 6.4V13.075ZM76.3772 15.125C76.3772 17.6 76.1272 19.175 75.5022 21H86.0272L87.9272 16.375L87.8772 16.325C87.0272 16.75 85.8272 17.175 84.2772 17.55C82.7522 17.925 81.3272 18.15 80.0522 18.25V6.4C80.0522 3.925 80.3022 2.35 80.9272 0.524998H75.5022C76.1272 2.35 76.3772 3.925 76.3772 6.4V15.125ZM94.9515 15.125C94.9515 17.6 94.7015 19.175 94.0765 21H105.226L106.926 16.9L106.876 16.85C104.401 17.925 101.951 18.35 98.6265 18.35V11.875C100.401 11.95 101.876 12.25 103.051 12.775L105.126 9.25H98.6265V3.05C100.801 3.1 102.601 3.55 104.051 4.4L105.826 0.524998H94.0765C94.7015 2.35 94.9515 3.925 94.9515 6.4V15.125ZM126.782 0.524998C126.957 0.974999 127.032 1.425 127.032 1.875C127.032 2.925 126.582 4.5 125.707 6.575L121.832 15.8L118.007 6.05C117.382 4.425 117.057 3.075 117.057 1.975C117.057 1.5 117.132 1 117.257 0.524998H111.182V0.599999C111.982 1.4 113.107 3.525 114.082 5.925L120.007 21H123.432L129.932 5.55C130.432 4.35 130.882 3.4 131.282 2.7C131.707 2 132.207 1.3 132.807 0.599999V0.524998H126.782ZM156.2 20.925C155.025 19.5 154.325 18.3 153.45 16.275L148.9 5.575C147.95 3.375 147.325 1.7 147.05 0.524998H143.825C143.5 1.8 142.825 3.475 141.85 5.575L136.925 16.2C135.9 18.425 135.1 19.725 134.075 20.925V21H139.675C139.65 20.775 139.625 20.55 139.625 20.325C139.625 19.45 139.925 18.425 140.625 16.825L141.15 15.65H149.15L149.6 16.75C150.325 18.525 150.6 19.45 150.6 20.325C150.6 20.6 150.575 20.825 150.525 21H156.2V20.925ZM145.325 6.25L147.95 12.675H142.475L145.325 6.25ZM177.338 20.9C175.863 19 174.638 17.4 173.713 16.1C172.788 14.775 171.938 13.4 171.113 11.95C173.588 10.675 174.838 8.85 174.838 6.475C174.838 3.175 171.988 0.524998 166.738 0.524998H161.713C162.338 2.35 162.588 3.925 162.588 6.4V15.125C162.588 17.6 162.338 19.175 161.713 21H167.138C166.513 19.175 166.263 17.6 166.263 15.125V11.6C168.188 14.475 169.863 16.775 171.313 18.55C172.438 19.875 173.363 20.7 174.138 21H177.338V20.9ZM171.063 6.9C171.063 8.875 169.388 10.5 166.263 11.225V2.75C168.963 2.75 171.063 4.4 171.063 6.9ZM184.312 15.125C184.312 17.6 184.062 19.175 183.437 21H188.237C195.237 21.05 200.612 17.05 200.512 10.6C200.512 4.475 195.787 0.374999 187.287 0.374999C186.287 0.374999 184.962 0.449999 183.287 0.574999C184.012 2.375 184.312 3.925 184.312 6.4V15.125ZM196.212 10.85C196.212 15.575 193.112 18.2 188.187 18.475C188.062 17.45 187.987 16.125 187.987 14.5V6.575C187.987 5.1 188.037 3.875 188.137 2.9C193.112 3.15 196.212 6.25 196.212 10.85Z" fill="white"/>
</svg>
