<svg width="239" height="50" viewBox="0 0 239 50" fill="none" xmlns="http://www.w3.org/2000/svg">
<path fill-rule="evenodd" clip-rule="evenodd" d="M29.1663 14.6336V18.5107C29.1663 23.4657 0 24.8459 0 11.0007C0 0.12148 17.7972 -1.55732 25.7004 1.12178C26.3309 1.33502 27.5325 1.62193 28.1352 1.31564C28.5913 1.08689 28.8808 1.19932 28.8808 1.6103C28.8808 3.59151 28.8808 5.37499 28.8808 7.36008C28.8808 7.82534 28.4525 7.93778 28.2939 7.37947C25.8432 -1.53793 5.99584 -1.02615 5.99584 11.0007C5.99584 22.194 24.3561 22.5662 24.3561 17.8749V14.622C24.3561 13.3774 23.1982 12.7764 20.6246 12.5283C20.5212 12.5406 20.4197 12.4936 20.3641 12.4075C20.3084 12.3215 20.3084 12.2117 20.3641 12.1256C20.4197 12.0396 20.5212 11.9926 20.6246 12.0049H32.763C32.8983 12.021 33 12.1333 33 12.2666C33 12.3999 32.8983 12.5122 32.763 12.5283C30.2052 12.7881 29.1663 13.389 29.1663 14.6336Z" fill="white"/>
<path fill-rule="evenodd" clip-rule="evenodd" d="M48.4865 15.7493L53.0043 8.68526L57.5221 15.7493H48.4865ZM51.7063 6.8171C51.2403 6.00367 50.5509 5.53274 48.837 5.53274C48.7055 5.51232 48.6101 5.39563 48.615 5.26136C48.62 5.1271 48.7237 5.01786 48.8562 5.00732H52.8194C54.2522 5.00732 55.3499 4.72709 57.2102 7.63442C59.7136 11.5459 62.2171 15.4496 64.7129 19.3649C65.5102 20.6104 66.2535 21.2136 68.7493 21.4666C68.8422 21.4701 68.9262 21.5234 68.9696 21.6064C69.0131 21.6894 69.0094 21.7896 68.96 21.8691C68.9106 21.9486 68.8229 21.9955 68.73 21.992H57.6377C57.5063 21.9758 57.4075 21.8631 57.4075 21.7293C57.4075 21.5955 57.5063 21.4828 57.6377 21.4666C60.2452 21.4666 60.5687 20.5247 59.8369 19.3727L58.5158 17.3099H47.4928L46.1717 19.3727C45.4322 20.5403 45.7557 21.4744 48.3632 21.4744C48.4946 21.4906 48.5934 21.6033 48.5934 21.7371C48.5934 21.8709 48.4946 21.9836 48.3632 21.9998H39.2698C39.1262 22.0052 39.0055 21.8919 39.0002 21.7468C38.9949 21.6017 39.1069 21.4798 39.2505 21.4744C41.6423 21.4744 42.7939 20.408 43.5835 19.2287L51.7063 6.8171Z" fill="white"/>
<path fill-rule="evenodd" clip-rule="evenodd" d="M84.9759 12.6084H90.1939C91.9921 12.6084 94.4807 11.5671 94.4807 9.45356C94.4807 7.34001 91.9921 6.29872 90.1939 6.29872H86.0998C85.3291 6.29872 84.9799 6.90646 84.9799 7.70388L84.9759 12.6084ZM94.3242 13.851C96.8689 16.6807 100.534 21.4033 104.515 21.4033C105.178 21.4033 105.125 21.9065 104.576 21.9065C100.421 21.9065 97.0054 22.851 93.2484 18.7362L88.9416 14.0136H84.9759V19.4717C84.9759 20.7142 86.1479 21.1362 88.7529 21.3839C88.8787 21.4108 88.9679 21.5187 88.9669 21.6429C88.9659 21.7671 88.8751 21.8737 88.7489 21.8988H76.306C76.169 21.8826 76.0661 21.7705 76.0661 21.6375C76.0661 21.5044 76.169 21.3923 76.306 21.3762C78.911 21.1284 80.083 20.7026 80.083 19.4639V7.69227C80.083 6.45356 78.911 5.75678 76.306 5.52452C76.2013 5.53683 76.0987 5.4899 76.0423 5.40396C75.9859 5.31802 75.9859 5.20845 76.0423 5.12251C76.0987 5.03657 76.2013 4.98963 76.306 5.00194H92.4778C95.0426 5.00194 99.8633 6.16323 99.8633 9.50002C99.8753 12.1555 96.8569 13.4252 94.3242 13.8394V13.851Z" fill="white"/>
<path fill-rule="evenodd" clip-rule="evenodd" d="M112.24 5C112.103 5.01621 112 5.12905 112 5.26295C112 5.39684 112.103 5.50969 112.24 5.52589C114.845 5.77521 116.017 6.45692 116.017 7.70738V19.5497C116.017 20.8002 114.845 21.2248 112.24 21.4741C112.103 21.4903 112 21.6032 112 21.7371C112 21.8709 112.103 21.9838 112.24 22H128.149C143.95 22 143.95 5 128.149 5H112.24ZM120.893 19.5497V7.70738C120.893 6.92828 121.431 6.14918 122.141 6.14918H126.528C137.641 6.14918 137.641 20.8197 126.528 20.8197H122.514C121.812 20.8352 120.893 20.1379 120.893 19.5497Z" fill="white"/>
<path fill-rule="evenodd" clip-rule="evenodd" d="M157.464 18.3331V13.1796H163.586C164.815 13.1796 165.274 14.2848 165.5 15.6892C165.515 15.81 165.617 15.9006 165.739 15.9006C165.86 15.9006 165.963 15.81 165.978 15.6892V9.14664C165.963 9.02585 165.86 8.93529 165.739 8.93529C165.617 8.93529 165.515 9.02585 165.5 9.14664C165.255 10.5511 164.796 11.6562 163.586 11.6562H157.464V7.26638C157.464 6.49892 157.976 5.73147 158.654 5.73147H165.362C168.129 5.73147 168.806 7.33929 169.039 8.74373C169.039 9.04304 169.521 9.06222 169.556 8.74373L170.061 4.25411C170.126 3.68236 168.821 4.25411 167.979 4.25411H149.229C149.098 4.27008 149 4.38123 149 4.51313C149 4.64502 149.098 4.75618 149.229 4.77215C151.716 5.01773 152.833 5.68926 152.833 6.92102V18.5864C152.833 19.8181 151.716 20.2364 149.229 20.482C149.098 20.4979 149 20.6091 149 20.741C149 20.8729 149.098 20.984 149.229 21H167.742C169.005 21 169.307 20.8081 169.77 19.5073L170.899 16.3339C171.198 15.5664 170.769 15.3899 170.459 15.9501C169.246 18.0568 168.01 19.6186 165.377 19.6186H159.002C158.34 19.6147 157.464 18.9279 157.464 18.3331Z" fill="white"/>
<path fill-rule="evenodd" clip-rule="evenodd" d="M185.865 5H179.257C178.902 5 178.927 5.52589 179.257 5.52589C180.951 5.52589 183.3 6.41797 183.3 7.66842V19.5497C183.3 20.8002 182.174 21.2248 179.422 21.4741C179.278 21.4903 179.169 21.6032 179.169 21.7371C179.169 21.8709 179.278 21.9838 179.422 22H189.747C189.891 21.9838 190 21.8709 190 21.7371C190 21.6032 189.891 21.4903 189.747 21.4741C186.995 21.2248 185.869 20.7963 185.869 19.5497L185.865 5Z" fill="white"/>
<path fill-rule="evenodd" clip-rule="evenodd" d="M204.301 21.4764C204.301 22.0716 203.488 22.1822 202.838 21.6901L186.211 9.16966C184.961 6.43439 184.269 6.29706 186.211 5C187.154 5 188.428 5.69431 189.055 6.17498L201.982 16.1204V7.39956C201.982 6.17498 200.971 5.75916 198.5 5.51501C198.37 5.49914 198.272 5.38863 198.272 5.2575C198.272 5.12638 198.37 5.01587 198.5 5H207.773C207.902 5.01587 208 5.12638 208 5.2575C208 5.38863 207.902 5.49914 207.773 5.51501C205.301 5.75916 204.29 6.17498 204.29 7.39956L204.301 21.4764Z" fill="white"/>
<path fill-rule="evenodd" clip-rule="evenodd" d="M218.483 15.1309C219.004 16.1073 219.665 17.0049 220.446 17.7962C223.182 20.5088 230.42 21.4944 233.737 20.0553C236.508 18.8528 236.941 15.6316 232.25 14.9574L226.31 14.5632C222.825 14.3345 218.699 13.3291 218.699 9.43769C218.699 4.46596 224.708 3.91793 228.589 4.00861C231.125 4.1031 233.639 4.50973 236.072 5.21901C236.525 4.96274 236.845 4.95091 236.985 5.47923L237.786 9.85167C237.846 10.1671 237.446 10.2775 237.266 9.96206C235.263 6.41365 232.218 5.40038 228.613 5.41615C226.939 5.41615 221.872 5.63299 221.916 8.22334C221.916 9.17747 222.989 10.0922 225.461 10.3839C227.4 10.6126 229.214 10.7782 231.249 10.928C234.718 11.1764 239 11.9768 239 16.3256C239 19.1722 236.909 20.765 234.225 21.4905C230.384 22.5274 223.622 21.8256 219.885 20.7769C219.432 21.0371 219.112 21.045 218.972 20.5166L218.018 15.3162C217.966 15.1899 218.028 15.0461 218.157 14.9949C218.285 14.9437 218.431 15.0046 218.483 15.1309Z" fill="white"/>
<path fill-rule="evenodd" clip-rule="evenodd" d="M163.066 42.4973C163.175 42.4816 163.285 42.5163 163.365 42.5917C163.444 42.6672 163.485 42.775 163.476 42.8845C163.476 43.5116 162.586 44.7621 160.123 45.8615C160.815 44.011 162.13 42.4973 163.066 42.4973ZM165 42.8419C165 42.2186 164.59 41.7734 163.619 41.7734C160.742 41.7734 158.061 45.1144 158.061 48.2734C158.061 49.4774 158.471 49.9845 159.295 49.9845C160.378 49.9845 162.335 49.0786 163.391 46.9416L163.341 46.8603C162.304 47.8824 160.711 48.7031 159.674 48.7031C159.626 47.9587 159.71 47.2116 159.922 46.4964C163.298 45.3079 164.992 44.1272 164.992 42.8419H165ZM153.424 41.7734C150.91 41.7734 148.129 45.1298 148.129 48.2734C148.129 49.4774 148.542 49.9845 149.362 49.9845C150.48 49.9845 152.387 49.0631 153.458 46.9571L153.412 46.8719C152.375 47.8746 150.778 48.6992 149.745 48.6992C149.417 46.1132 151.374 42.8225 153.226 42.3309L153.474 43.9297C154.379 43.8136 154.87 43.3529 154.87 42.7451C154.87 42.1373 154.352 41.7734 153.416 41.7734H153.424ZM143.584 47.6307C143.008 48.1258 142.318 48.4703 141.577 48.6334L143.944 43.3142C144.307 42.4934 144.47 41.7656 143.584 41.7656C141.774 41.7656 139.155 44.7621 137.991 46.4732L139.739 42.5709C139.886 42.2418 139.902 41.7656 139.31 41.7656C138.637 41.7656 137.287 42.3734 135.988 44.0536L136.038 44.1349C136.624 43.6432 137.321 43.3017 138.068 43.14L135.075 49.8258H136.521C138.099 46.2525 141.851 43.3064 142.578 43.14L139.886 49.1793C139.705 49.5664 139.77 49.9845 140.331 49.9845C141.004 49.9845 142.354 49.3767 143.638 47.6965L143.584 47.6307ZM130.225 42.5128C130.333 42.497 130.443 42.5318 130.523 42.6072C130.603 42.6826 130.644 42.7904 130.635 42.8999C130.635 43.5271 129.745 44.7775 127.277 45.877C127.973 44.011 129.289 42.4973 130.225 42.4973V42.5128ZM132.158 42.8574C132.158 42.2341 131.748 41.7889 130.778 41.7889C127.9 41.7889 125.22 45.1298 125.22 48.2889C125.22 49.4929 125.63 50 126.453 50C127.536 50 129.497 49.0941 130.549 46.9571L130.503 46.8758C129.466 47.8979 127.873 48.7186 126.836 48.7186C126.788 47.9742 126.872 47.2271 127.084 46.5119C130.457 45.3079 132.151 44.1272 132.151 42.8419L132.158 42.8574ZM114.475 48.8502C114.165 46.2835 116.366 42.5786 118.606 42.5786C118.897 42.5589 119.186 42.635 119.43 42.7954C118.223 46.3493 115.508 48.5521 114.475 48.8502ZM122.141 37C121.448 37 120.168 37.6078 119.047 39.288L119.097 39.3731C119.644 38.8766 120.31 38.5311 121.031 38.3705L119.797 41.8547C119.541 41.8149 119.282 41.7929 119.023 41.7889C116.177 41.7889 112.924 45.1453 112.924 48.2734C112.924 49.4348 113.353 50 114.026 50C114.997 50 116.691 48.8967 118.281 46.1983L117.182 49.1793C117.035 49.5664 117.132 49.9845 117.708 49.9845C118.366 49.9845 119.665 49.3767 120.803 47.6965L120.756 47.6152C120.217 48.1076 119.56 48.4529 118.849 48.6179L122.648 37.8014C122.81 37.3755 122.648 37 122.137 37H122.141ZM108.368 47.6307C107.792 48.1264 107.102 48.4709 106.36 48.6334L109.06 42.5786C109.207 42.2496 109.222 41.7734 108.634 41.7734C107.958 41.7734 106.612 42.3812 105.312 44.0613L105.362 44.1426C105.946 43.6498 106.64 43.3058 107.385 43.14L104.678 49.1793C104.496 49.5664 104.581 49.9845 105.138 49.9845C105.811 49.9845 107.145 49.3767 108.426 47.6965L108.368 47.6307ZM109.01 40.0932C109.671 40.0781 110.216 39.5681 110.274 38.9086C110.286 38.7052 110.213 38.5061 110.072 38.3592C109.931 38.2122 109.735 38.1307 109.532 38.1343C108.87 38.1494 108.326 38.6594 108.267 39.3189C108.26 39.5197 108.335 39.7147 108.475 39.8582C108.616 40.0017 108.809 40.0811 109.01 40.0777V40.0932ZM96.3464 50C98.1063 50 99.9474 48.9121 99.9474 47.1855C99.9474 45.606 98.2687 44.9479 98.2687 43.86C98.2687 43.02 99.1738 42.4276 100.013 42.3463L100.276 43.9452C101.166 43.8291 101.672 43.3684 101.672 42.7606C101.672 42.1528 101.181 41.7889 100.191 41.7889C98.4969 41.7889 96.8686 42.7451 96.8686 44.2898C96.8686 45.757 98.466 46.3493 98.466 47.5998C98.466 48.556 97.6576 49.3612 96.5321 49.427L96.2691 47.832C95.3795 47.9637 94.8728 48.4244 94.8728 49.0322C94.8728 49.64 95.3601 49.9845 96.3464 49.9845V50ZM90.5447 42.5128C90.6534 42.497 90.7633 42.5318 90.8432 42.6072C90.923 42.6826 90.9641 42.7904 90.9547 42.8999C90.9547 43.5271 90.0651 44.7775 87.5974 45.877C88.3053 44.011 89.6203 42.4973 90.5563 42.4973L90.5447 42.5128ZM92.4786 42.8574C92.4786 42.2341 92.0686 41.7889 91.0978 41.7889C88.2202 41.7889 85.5398 45.1298 85.5398 48.2889C85.5398 49.4929 85.9498 50 86.7736 50C87.8605 50 89.8176 49.0941 90.8696 46.9571L90.8193 46.8758C89.7828 47.8979 88.1892 48.7186 87.1526 48.7186C87.1036 47.9741 87.1874 47.2269 87.4002 46.5119C90.7884 45.3079 92.4825 44.1272 92.4825 42.8419L92.4786 42.8574ZM82.0704 41.7889C80.8365 41.7889 79.506 43.469 78.4501 45.1298L79.5717 42.5941C79.7033 42.265 79.7187 41.7889 79.1269 41.7889C78.4501 41.7889 77.193 42.3967 75.8857 44.0768L75.936 44.1581C76.5193 43.665 77.2135 43.3209 77.9589 43.1554L75 49.8413H76.4466C78.2567 45.7764 80.0165 43.62 81.3664 43.0587L81.4979 43.9491C82.4687 43.8329 83.0102 43.3413 83.0102 42.6831C83.0289 42.431 82.9347 42.1837 82.7532 42.0079C82.5716 41.8322 82.3215 41.7463 82.0704 41.7734V41.7889Z" fill="white"/>
</svg>
