<svg width="37" height="37" viewBox="0 0 37 37" fill="none" xmlns="http://www.w3.org/2000/svg">
<path fill-rule="evenodd" clip-rule="evenodd" d="M23.883 10H13.1166C11.3981 10 10 11.3981 10 13.1166V23.883C10 25.6015 11.3981 27 13.1166 27H23.883C25.6015 27 27 25.6019 27 23.883V13.1166C27 11.3981 25.6019 10 23.883 10ZM18.4998 24.0963C15.4142 24.0963 12.9037 21.5858 12.9037 18.4998C12.9037 15.4142 15.4142 12.9037 18.4998 12.9037C21.5858 12.9037 24.0963 15.4142 24.0963 18.4998C24.0963 21.5854 21.5854 24.0963 18.4998 24.0963ZM22.9517 12.7367C22.9517 13.4667 23.5457 14.0607 24.2762 14.0607C25.0063 14.0607 25.6003 13.4667 25.6003 12.7367C25.6003 12.0066 25.0063 11.4126 24.2762 11.4126C23.5457 11.4126 22.9517 12.0066 22.9517 12.7367Z" fill="white"/>
<path d="M18.5002 15C16.571 15 15 16.5701 15 18.4993C15 20.4295 16.571 22 18.5002 22C20.4304 22 22 20.4295 22 18.4993C22 16.5705 20.4299 15 18.5002 15Z" fill="white"/>
<path fill-rule="evenodd" clip-rule="evenodd" d="M0 18.5C0 8.28314 8.28314 0 18.5 0C28.7169 0 37 8.28314 37 18.5C37 28.7169 28.7169 37 18.5 37C8.28314 37 0 28.7169 0 18.5ZM24.0138 29.6782C27.11 29.6782 29.6283 27.1599 29.6283 24.0637V13.036C29.6283 9.94026 27.11 7.4216 24.0138 7.4216H12.9862C9.89038 7.4216 7.37172 9.94026 7.37172 13.036V24.0637C7.37172 27.1599 9.89038 29.6782 12.9862 29.6782H24.0138Z" fill="white"/>
</svg>
