<svg width="70" height="70" viewBox="0 0 70 70" fill="none" xmlns="http://www.w3.org/2000/svg">
<rect width="70" height="70" fill="#FF2E00"/>
<g clip-path="url(#clip0)">
<rect x="9" y="14.875" width="51" height="33.25" fill="white" fill-opacity="0.01"/>
<mask id="mask0" mask-type="alpha" maskUnits="userSpaceOnUse" x="9" y="14" width="51" height="35">
<rect x="9" y="14.875" width="51" height="33.25" fill="white"/>
</mask>
<g mask="url(#mask0)">
<path d="M18.45 47.295C21.09 47.295 23.16 46.305 24.63 44.325C26.1 42.315 26.85 39.675 26.85 36.375C26.85 33.075 26.1 30.435 24.63 28.455C23.16 26.445 21.09 25.455 18.45 25.455C15.84 25.455 13.77 26.445 12.27 28.455C10.8 30.435 10.05 33.075 10.05 36.375C10.05 39.675 10.8 42.315 12.27 44.325C13.77 46.305 15.84 47.295 18.45 47.295ZM22.74 36.375C22.74 40.815 21.24 43.245 18.45 43.245C15.66 43.245 14.19 40.845 14.19 36.375C14.19 31.905 15.66 29.475 18.45 29.475C21.24 29.475 22.74 31.905 22.74 36.375ZM41.5869 29.295V25.875H28.3869V29.745H36.6069L32.4669 35.145L34.0569 37.545H34.9569C37.0869 37.545 38.3169 38.685 38.3169 40.395C38.3169 42.165 37.0869 43.245 34.9569 43.245C33.0369 43.245 31.8069 42.435 31.2969 40.815L27.7569 42.855C28.9269 45.765 31.6869 47.295 34.9569 47.295C37.0569 47.295 38.8269 46.695 40.2669 45.465C41.7369 44.235 42.4569 42.555 42.4569 40.395C42.4569 37.425 40.5069 35.235 37.6569 34.395L41.5869 29.295Z" fill="white"/>
<path d="M49.14 24.015C49.61 23.355 49.85 22.475 49.85 21.375C49.85 20.275 49.61 19.395 49.14 18.735C48.67 18.075 48 17.745 47.15 17.745C46.3 17.745 45.63 18.075 45.16 18.735C44.69 19.395 44.45 20.275 44.45 21.375C44.45 22.475 44.69 23.355 45.16 24.015C45.63 24.675 46.3 25.005 47.15 25.005C48 25.005 48.67 24.675 49.14 24.015ZM45.38 21.375C45.38 19.625 46.02 18.645 47.15 18.645C48.28 18.645 48.93 19.645 48.93 21.375C48.93 23.105 48.28 24.095 47.15 24.095C46.02 24.095 45.38 23.105 45.38 21.375ZM54.7578 18.695V17.875H50.5578V18.745H53.6678L52.0478 20.935L52.4178 21.505H52.6578C53.5278 21.505 54.1278 21.995 54.1278 22.805C54.1278 23.615 53.5278 24.095 52.6578 24.095C51.8478 24.095 51.3478 23.775 51.1378 23.125L50.3578 23.585C50.7078 24.505 51.5878 25.005 52.6578 25.005C53.3278 25.005 53.8878 24.805 54.3578 24.415C54.8278 24.025 55.0578 23.485 55.0578 22.805C55.0578 21.695 54.3078 20.945 53.2378 20.745L54.7578 18.695Z" fill="white"/>
</g>
</g>
<defs>
<clipPath id="clip0">
<rect x="9" y="14.875" width="51" height="33.25" fill="white"/>
</clipPath>
</defs>
</svg>
