<svg width="70" height="70" viewBox="0 0 70 70" fill="none" xmlns="http://www.w3.org/2000/svg">
<rect width="70" height="70" fill="#FF2E00"/>
<g clip-path="url(#clip0)">
<rect x="16" y="14.875" width="51" height="33.25" fill="white" fill-opacity="0.01"/>
<mask id="mask0" mask-type="alpha" maskUnits="userSpaceOnUse" x="16" y="14" width="51" height="35">
<rect x="16" y="14.875" width="51" height="33.25" fill="white"/>
</mask>
<g mask="url(#mask0)">
<path d="M25.45 47.295C28.09 47.295 30.16 46.305 31.63 44.325C33.1 42.315 33.85 39.675 33.85 36.375C33.85 33.075 33.1 30.435 31.63 28.455C30.16 26.445 28.09 25.455 25.45 25.455C22.84 25.455 20.77 26.445 19.27 28.455C17.8 30.435 17.05 33.075 17.05 36.375C17.05 39.675 17.8 42.315 19.27 44.325C20.77 46.305 22.84 47.295 25.45 47.295ZM29.74 36.375C29.74 40.815 28.24 43.245 25.45 43.245C22.66 43.245 21.19 40.845 21.19 36.375C21.19 31.905 22.66 29.475 25.45 29.475C28.24 29.475 29.74 31.905 29.74 36.375ZM49.2391 46.875V42.885H41.3491L45.4591 38.775C47.7691 36.465 48.9091 34.245 48.9091 32.055C48.9091 30.045 48.2191 28.425 46.8691 27.255C45.5191 26.055 43.8691 25.455 41.9791 25.455C39.0091 25.455 36.3691 27.015 35.0491 29.895L38.5291 31.935C39.2791 30.285 40.4491 29.475 42.0391 29.475C43.6291 29.475 44.7691 30.555 44.7691 32.205C44.7691 33.315 43.9591 34.725 42.3691 36.405L35.1991 43.785V46.875H49.2391Z" fill="white"/>
<path d="M56.14 24.015C56.61 23.355 56.85 22.475 56.85 21.375C56.85 20.275 56.61 19.395 56.14 18.735C55.67 18.075 55 17.745 54.15 17.745C53.3 17.745 52.63 18.075 52.16 18.735C51.69 19.395 51.45 20.275 51.45 21.375C51.45 22.475 51.69 23.355 52.16 24.015C52.63 24.675 53.3 25.005 54.15 25.005C55 25.005 55.67 24.675 56.14 24.015ZM52.38 21.375C52.38 19.625 53.02 18.645 54.15 18.645C55.28 18.645 55.93 19.645 55.93 21.375C55.93 23.105 55.28 24.095 54.15 24.095C53.02 24.095 52.38 23.105 52.38 21.375ZM61.7578 18.695V17.875H57.5578V18.745H60.6678L59.0478 20.935L59.4178 21.505H59.6578C60.5278 21.505 61.1278 21.995 61.1278 22.805C61.1278 23.615 60.5278 24.095 59.6578 24.095C58.8478 24.095 58.3478 23.775 58.1378 23.125L57.3578 23.585C57.7078 24.505 58.5878 25.005 59.6578 25.005C60.3278 25.005 60.8878 24.805 61.3578 24.415C61.8278 24.025 62.0578 23.485 62.0578 22.805C62.0578 21.695 61.3078 20.945 60.2378 20.745L61.7578 18.695Z" fill="white"/>
</g>
</g>
<defs>
<clipPath id="clip0">
<rect x="16" y="14.875" width="51" height="33.25" fill="white"/>
</clipPath>
</defs>
</svg>
