<svg width="36" height="36" viewBox="0 0 36 36" fill="none" xmlns="http://www.w3.org/2000/svg">
<path fill-rule="evenodd" clip-rule="evenodd" d="M18 36C27.9411 36 36 27.9411 36 18C36 8.05887 27.9411 0 18 0C8.05887 0 0 8.05887 0 18C0 27.9411 8.05887 36 18 36Z" fill="#DB1C1C"/>
<path d="M25.966 22.397C25.9207 22.2607 25.6328 22.0598 25.1023 21.7949C24.9587 21.7114 24.7539 21.5979 24.489 21.454C24.2238 21.31 23.9831 21.1773 23.7673 21.0561C23.5511 20.9349 23.3486 20.8175 23.1593 20.704C23.129 20.6813 23.0344 20.6151 22.8753 20.505C22.716 20.3952 22.5817 20.3138 22.4716 20.2606C22.3618 20.2078 22.2538 20.1812 22.1477 20.1812C21.9962 20.1812 21.807 20.2893 21.5798 20.505C21.3526 20.7211 21.1442 20.9557 20.9549 21.2097C20.7655 21.4636 20.5647 21.6983 20.3528 21.9142C20.1406 22.1302 19.9662 22.2381 19.83 22.2381C19.7616 22.2381 19.6764 22.2191 19.5742 22.1814C19.4721 22.1436 19.3944 22.1112 19.341 22.085C19.2882 22.0583 19.1974 22.0054 19.0686 21.9256C18.9394 21.8461 18.8676 21.8025 18.8525 21.7949C17.8146 21.219 16.9245 20.5599 16.182 19.8177C15.4397 19.0751 14.7804 18.1851 14.2047 17.1472C14.1971 17.132 14.1535 17.06 14.074 16.9313C13.9944 16.8025 13.9413 16.7117 13.9148 16.6585C13.8883 16.6055 13.8561 16.5279 13.8183 16.4256C13.7805 16.3234 13.7615 16.2382 13.7615 16.1699C13.7615 16.0336 13.8695 15.8593 14.0854 15.6472C14.3013 15.4352 14.5362 15.2343 14.7899 15.0451C15.0438 14.8558 15.2785 14.6474 15.4945 14.4202C15.7104 14.1929 15.8183 14.0036 15.8183 13.8521C15.8183 13.7462 15.7918 13.6381 15.7388 13.5283C15.6858 13.4182 15.6044 13.2839 15.4945 13.1248C15.3845 12.9657 15.3183 12.8711 15.2955 12.8406C15.182 12.6514 15.0647 12.4488 14.9433 12.2328C14.822 12.017 14.6895 11.7763 14.5455 11.5112C14.4016 11.2462 14.288 11.0416 14.2046 10.8977C13.9396 10.3675 13.7389 10.0795 13.6025 10.0342C13.5494 10.0115 13.4698 10 13.3638 10C13.1592 10 12.8922 10.0378 12.5626 10.1137C12.233 10.1894 11.9736 10.2689 11.7842 10.3523C11.4053 10.5113 11.0038 10.9734 10.5795 11.7384C10.1932 12.4504 10 13.1551 10 13.8519C10 14.0563 10.0133 14.2552 10.0398 14.4485C10.0663 14.6417 10.1136 14.8595 10.1819 15.102C10.25 15.3444 10.305 15.5244 10.3466 15.6417C10.3882 15.759 10.4658 15.9692 10.5795 16.2723C10.693 16.5754 10.7613 16.7609 10.784 16.8291C11.0491 17.5715 11.3636 18.2343 11.7272 18.8177C12.3254 19.7873 13.1418 20.7894 14.1759 21.8235C15.21 22.8575 16.212 23.6739 17.1818 24.2723C17.7651 24.6359 18.4282 24.9502 19.1705 25.2155C19.2388 25.2381 19.4243 25.3062 19.7272 25.4201C20.0303 25.5337 20.2406 25.6114 20.3579 25.6531C20.4753 25.6948 20.6554 25.7498 20.8976 25.818C21.1403 25.8863 21.358 25.9337 21.5512 25.9604C21.7444 25.9865 21.9433 26 22.1478 26C22.8446 26 23.5494 25.8067 24.2615 25.4204C25.0265 24.9963 25.4885 24.5947 25.6476 24.2157C25.7313 24.0265 25.8105 23.767 25.8863 23.4374C25.9623 23.1079 26 22.8409 26 22.6363C26.0002 22.5299 25.9888 22.4505 25.966 22.397Z" fill="white"/>
</svg>
